# Goxel 0.10.5
v -1 -3 0 0.462745 0.258824 0.541176
v 0 -3 0 0.462745 0.258824 0.541176
v 0 -3 1 0.462745 0.258824 0.541176
v -1 -3 1 0.462745 0.258824 0.541176
v -1 -2 0 0.462745 0.258824 0.541176
v 0 -2 0 0.462745 0.258824 0.541176
v 0 -2 1 0.462745 0.258824 0.541176
v -1 -2 1 0.462745 0.258824 0.541176
v -3 -2 0 0.560784 0.337255 0.231373
v -2 -2 0 0.560784 0.337255 0.231373
v -2 -2 1 0.560784 0.337255 0.231373
v -3 -2 1 0.560784 0.337255 0.231373
v -3 -1 0 0.560784 0.337255 0.231373
v -2 -1 0 0.560784 0.337255 0.231373
v -2 -1 1 0.560784 0.337255 0.231373
v -3 -1 1 0.560784 0.337255 0.231373
v -2 -2 0 0.874510 0.443137 0.149020
v -1 -2 0 0.874510 0.443137 0.149020
v -1 -2 1 0.874510 0.443137 0.149020
v -2 -2 1 0.874510 0.443137 0.149020
v -2 -1 0 0.874510 0.443137 0.149020
v -1 -1 0 0.874510 0.443137 0.149020
v -1 -1 1 0.874510 0.443137 0.149020
v -2 -1 1 0.874510 0.443137 0.149020
v 0 -1 0 0.874510 0.443137 0.149020
v 0 -2 0 0.874510 0.443137 0.149020
v 0 -2 1 0.874510 0.443137 0.149020
v 0 -1 1 0.874510 0.443137 0.149020
v -4 -1 0 0.560784 0.337255 0.231373
v -4 -1 1 0.560784 0.337255 0.231373
v -3 0 0 0.560784 0.337255 0.231373
v -4 0 0 0.560784 0.337255 0.231373
v -4 0 1 0.560784 0.337255 0.231373
v -3 0 1 0.560784 0.337255 0.231373
v -3 -1 0 0.933333 0.764706 0.603922
v -3 0 0 0.933333 0.764706 0.603922
v -2 0 0 0.933333 0.764706 0.603922
v -2 -1 0 0.933333 0.764706 0.603922
v -2 -1 1 0.933333 0.764706 0.603922
v -2 0 1 0.933333 0.764706 0.603922
v -3 0 1 0.933333 0.764706 0.603922
v -3 -1 1 0.933333 0.764706 0.603922
v -2 -1 0 0.000000 0.000000 0.000000
v -2 0 0 0.000000 0.000000 0.000000
v -1 0 0 0.000000 0.000000 0.000000
v -1 -1 0 0.000000 0.000000 0.000000
v -1 -1 1 0.000000 0.000000 0.000000
v -1 0 1 0.000000 0.000000 0.000000
v -2 0 1 0.000000 0.000000 0.000000
v -2 -1 1 0.000000 0.000000 0.000000
v -1 0 0 0.874510 0.443137 0.149020
v 0 0 0 0.874510 0.443137 0.149020
v 0 0 1 0.874510 0.443137 0.149020
v -1 0 1 0.874510 0.443137 0.149020
v -3 1 0 0.560784 0.337255 0.231373
v -2 1 0 0.560784 0.337255 0.231373
v -2 0 0 0.560784 0.337255 0.231373
v -2 0 1 0.560784 0.337255 0.231373
v -2 1 1 0.560784 0.337255 0.231373
v -3 1 1 0.560784 0.337255 0.231373
v -2 0 0 0.874510 0.443137 0.149020
v -2 1 0 0.874510 0.443137 0.149020
v -1 1 0 0.874510 0.443137 0.149020
v -1 1 1 0.874510 0.443137 0.149020
v -2 1 1 0.874510 0.443137 0.149020
v -2 0 1 0.874510 0.443137 0.149020
v -1 0 0 1.000000 1.000000 1.000000
v -1 1 0 1.000000 1.000000 1.000000
v 0 1 0 1.000000 1.000000 1.000000
v 0 0 0 1.000000 1.000000 1.000000
v 0 0 1 1.000000 1.000000 1.000000
v 0 1 1 1.000000 1.000000 1.000000
v -1 1 1 1.000000 1.000000 1.000000
v -1 0 1 1.000000 1.000000 1.000000
v -4 1 0 0.560784 0.337255 0.231373
v -4 1 1 0.560784 0.337255 0.231373
v -3 2 0 0.560784 0.337255 0.231373
v -4 2 0 0.560784 0.337255 0.231373
v -4 2 1 0.560784 0.337255 0.231373
v -3 2 1 0.560784 0.337255 0.231373
v -2 2 0 0.933333 0.764706 0.603922
v -3 2 0 0.933333 0.764706 0.603922
v -3 2 1 0.933333 0.764706 0.603922
v -2 2 1 0.933333 0.764706 0.603922
v -3 1 0 0.933333 0.764706 0.603922
v -2 1 0 0.933333 0.764706 0.603922
v -2 1 1 0.933333 0.764706 0.603922
v -3 1 1 0.933333 0.764706 0.603922
v -1 2 0 0.000000 0.000000 0.000000
v -2 2 0 0.000000 0.000000 0.000000
v -2 2 1 0.000000 0.000000 0.000000
v -1 2 1 0.000000 0.000000 0.000000
v -2 1 0 0.000000 0.000000 0.000000
v -1 1 0 0.000000 0.000000 0.000000
v -1 1 1 0.000000 0.000000 0.000000
v -2 1 1 0.000000 0.000000 0.000000
v -1 2 0 1.000000 1.000000 1.000000
v 0 2 0 1.000000 1.000000 1.000000
v 0 2 1 1.000000 1.000000 1.000000
v -1 2 1 1.000000 1.000000 1.000000
v 0 3 0 0.133333 0.125490 0.203922
v -1 3 0 0.133333 0.125490 0.203922
v -1 3 1 0.133333 0.125490 0.203922
v 0 3 1 0.133333 0.125490 0.203922
v -1 2 0 0.133333 0.125490 0.203922
v 0 2 0 0.133333 0.125490 0.203922
v 0 2 1 0.133333 0.125490 0.203922
v -1 2 1 0.133333 0.125490 0.203922
v 1 -4 0 0.560784 0.337255 0.231373
v 2 -4 0 0.560784 0.337255 0.231373
v 2 -4 1 0.560784 0.337255 0.231373
v 1 -4 1 0.560784 0.337255 0.231373
v 1 -3 0 0.560784 0.337255 0.231373
v 2 -3 0 0.560784 0.337255 0.231373
v 2 -3 1 0.560784 0.337255 0.231373
v 1 -3 1 0.560784 0.337255 0.231373
v 3 -4 0 0.560784 0.337255 0.231373
v 3 -4 1 0.560784 0.337255 0.231373
v 3 -3 0 0.560784 0.337255 0.231373
v 3 -3 1 0.560784 0.337255 0.231373
v 1 -3 0 0.462745 0.258824 0.541176
v 1 -3 1 0.462745 0.258824 0.541176
v 1 -2 0 0.462745 0.258824 0.541176
v 1 -2 1 0.462745 0.258824 0.541176
v 1 -3 0 0.874510 0.443137 0.149020
v 1 -2 0 0.874510 0.443137 0.149020
v 2 -2 0 0.874510 0.443137 0.149020
v 2 -3 0 0.874510 0.443137 0.149020
v 2 -3 1 0.874510 0.443137 0.149020
v 2 -2 1 0.874510 0.443137 0.149020
v 1 -2 1 0.874510 0.443137 0.149020
v 1 -3 1 0.874510 0.443137 0.149020
v 2 -2 0 0.560784 0.337255 0.231373
v 3 -2 0 0.560784 0.337255 0.231373
v 3 -2 1 0.560784 0.337255 0.231373
v 2 -2 1 0.560784 0.337255 0.231373
v 3 -3 0 0.462745 0.258824 0.541176
v 4 -3 0 0.462745 0.258824 0.541176
v 4 -3 1 0.462745 0.258824 0.541176
v 3 -3 1 0.462745 0.258824 0.541176
v 3 -2 0 0.462745 0.258824 0.541176
v 4 -2 0 0.462745 0.258824 0.541176
v 4 -2 1 0.462745 0.258824 0.541176
v 3 -2 1 0.462745 0.258824 0.541176
v 0 -1 0 0.462745 0.258824 0.541176
v 1 -1 0 0.462745 0.258824 0.541176
v 1 -1 1 0.462745 0.258824 0.541176
v 0 -1 1 0.462745 0.258824 0.541176
v 1 -2 0 0.517647 0.494118 0.529412
v 1 -1 0 0.517647 0.494118 0.529412
v 2 -1 0 0.517647 0.494118 0.529412
v 2 -2 0 0.517647 0.494118 0.529412
v 2 -2 1 0.517647 0.494118 0.529412
v 2 -1 1 0.517647 0.494118 0.529412
v 1 -1 1 0.517647 0.494118 0.529412
v 1 -2 1 0.517647 0.494118 0.529412
v 2 -2 0 0.462745 0.258824 0.541176
v 2 -1 0 0.462745 0.258824 0.541176
v 3 -1 0 0.462745 0.258824 0.541176
v 3 -1 1 0.462745 0.258824 0.541176
v 2 -1 1 0.462745 0.258824 0.541176
v 2 -2 1 0.462745 0.258824 0.541176
v 3 -2 0 0.400000 0.223529 0.192157
v 3 -1 0 0.400000 0.223529 0.192157
v 4 -1 0 0.400000 0.223529 0.192157
v 4 -2 0 0.400000 0.223529 0.192157
v 4 -2 1 0.400000 0.223529 0.192157
v 4 -1 1 0.400000 0.223529 0.192157
v 3 -1 1 0.400000 0.223529 0.192157
v 3 -2 1 0.400000 0.223529 0.192157
v 0 0 0 0.462745 0.258824 0.541176
v 1 0 0 0.462745 0.258824 0.541176
v 1 0 1 0.462745 0.258824 0.541176
v 0 0 1 0.462745 0.258824 0.541176
v 1 0 0 0.517647 0.494118 0.529412
v 2 0 0 0.517647 0.494118 0.529412
v 2 0 1 0.517647 0.494118 0.529412
v 1 0 1 0.517647 0.494118 0.529412
v 2 0 0 0.462745 0.258824 0.541176
v 3 0 0 0.462745 0.258824 0.541176
v 3 0 1 0.462745 0.258824 0.541176
v 2 0 1 0.462745 0.258824 0.541176
v 4 0 0 0.462745 0.258824 0.541176
v 4 -1 0 0.462745 0.258824 0.541176
v 4 -1 1 0.462745 0.258824 0.541176
v 4 0 1 0.462745 0.258824 0.541176
v 0 1 0 0.462745 0.258824 0.541176
v 1 1 0 0.462745 0.258824 0.541176
v 1 1 1 0.462745 0.258824 0.541176
v 0 1 1 0.462745 0.258824 0.541176
v 1 0 0 0.984314 0.949020 0.211765
v 1 1 0 0.984314 0.949020 0.211765
v 2 1 0 0.984314 0.949020 0.211765
v 2 0 0 0.984314 0.949020 0.211765
v 2 0 1 0.984314 0.949020 0.211765
v 2 1 1 0.984314 0.949020 0.211765
v 1 1 1 0.984314 0.949020 0.211765
v 1 0 1 0.984314 0.949020 0.211765
v 2 1 0 0.462745 0.258824 0.541176
v 3 1 0 0.462745 0.258824 0.541176
v 3 1 1 0.462745 0.258824 0.541176
v 2 1 1 0.462745 0.258824 0.541176
v 4 1 0 0.462745 0.258824 0.541176
v 4 1 1 0.462745 0.258824 0.541176
v 0 2 0 0.462745 0.258824 0.541176
v 1 2 0 0.462745 0.258824 0.541176
v 1 2 1 0.462745 0.258824 0.541176
v 0 2 1 0.462745 0.258824 0.541176
v 1 1 0 0.517647 0.494118 0.529412
v 1 2 0 0.517647 0.494118 0.529412
v 2 2 0 0.517647 0.494118 0.529412
v 2 1 0 0.517647 0.494118 0.529412
v 2 1 1 0.517647 0.494118 0.529412
v 2 2 1 0.517647 0.494118 0.529412
v 1 2 1 0.517647 0.494118 0.529412
v 1 1 1 0.517647 0.494118 0.529412
v 3 2 0 0.462745 0.258824 0.541176
v 2 2 0 0.462745 0.258824 0.541176
v 2 2 1 0.462745 0.258824 0.541176
v 3 2 1 0.462745 0.258824 0.541176
v 3 1 0 0.400000 0.223529 0.192157
v 3 2 0 0.400000 0.223529 0.192157
v 4 2 0 0.400000 0.223529 0.192157
v 4 1 0 0.400000 0.223529 0.192157
v 4 1 1 0.400000 0.223529 0.192157
v 4 2 1 0.400000 0.223529 0.192157
v 3 2 1 0.400000 0.223529 0.192157
v 3 1 1 0.400000 0.223529 0.192157
v 1 3 0 0.462745 0.258824 0.541176
v 0 3 0 0.462745 0.258824 0.541176
v 0 3 1 0.462745 0.258824 0.541176
v 1 3 1 0.462745 0.258824 0.541176
v 2 3 0 0.462745 0.258824 0.541176
v 2 3 1 0.462745 0.258824 0.541176
v 4 3 0 0.462745 0.258824 0.541176
v 3 3 0 0.462745 0.258824 0.541176
v 3 3 1 0.462745 0.258824 0.541176
v 4 3 1 0.462745 0.258824 0.541176
v 4 2 0 0.462745 0.258824 0.541176
v 4 2 1 0.462745 0.258824 0.541176
v 2 4 0 0.874510 0.443137 0.149020
v 1 4 0 0.874510 0.443137 0.149020
v 1 4 1 0.874510 0.443137 0.149020
v 2 4 1 0.874510 0.443137 0.149020
v 1 3 0 0.874510 0.443137 0.149020
v 2 3 0 0.874510 0.443137 0.149020
v 2 3 1 0.874510 0.443137 0.149020
v 1 3 1 0.874510 0.443137 0.149020
vn 0 -1 0
vn 0 0 -1
vn 0 0 1
vn -1 0 0
vn 0 1 0
vn 1 0 0
f 1//1 2//1 3//1 4//1
f 1//2 5//2 6//2 2//2
f 3//3 7//3 8//3 4//3
f 1//4 4//4 8//4 5//4
f 9//1 10//1 11//1 12//1
f 9//2 13//2 14//2 10//2
f 11//3 15//3 16//3 12//3
f 9//4 12//4 16//4 13//4
f 17//1 18//1 19//1 20//1
f 17//2 21//2 22//2 18//2
f 19//3 23//3 24//3 20//3
f 18//2 22//2 25//2 26//2
f 27//3 28//3 23//3 19//3
f 29//1 13//1 16//1 30//1
f 31//5 32//5 33//5 34//5
f 29//2 32//2 31//2 13//2
f 16//3 34//3 33//3 30//3
f 29//4 30//4 33//4 32//4
f 35//2 36//2 37//2 38//2
f 39//3 40//3 41//3 42//3
f 43//2 44//2 45//2 46//2
f 47//3 48//3 49//3 50//3
f 22//2 51//2 52//2 25//2
f 28//3 53//3 54//3 23//3
f 31//2 55//2 56//2 57//2
f 58//3 59//3 60//3 34//3
f 31//4 34//4 60//4 55//4
f 61//2 62//2 63//2 51//2
f 54//3 64//3 65//3 66//3
f 67//2 68//2 69//2 70//2
f 71//3 72//3 73//3 74//3
f 75//1 55//1 60//1 76//1
f 77//5 78//5 79//5 80//5
f 75//2 78//2 77//2 55//2
f 60//3 80//3 79//3 76//3
f 75//4 76//4 79//4 78//4
f 81//5 82//5 83//5 84//5
f 85//2 82//2 81//2 86//2
f 87//3 84//3 83//3 88//3
f 89//5 90//5 91//5 92//5
f 93//2 90//2 89//2 94//2
f 95//3 92//3 91//3 96//3
f 68//2 97//2 98//2 69//2
f 72//3 99//3 100//3 73//3
f 101//5 102//5 103//5 104//5
f 105//2 102//2 101//2 106//2
f 107//3 104//3 103//3 108//3
f 105//4 108//4 103//4 102//4
f 109//1 110//1 111//1 112//1
f 109//2 113//2 114//2 110//2
f 111//3 115//3 116//3 112//3
f 109//4 112//4 116//4 113//4
f 110//1 117//1 118//1 111//1
f 110//2 114//2 119//2 117//2
f 118//3 120//3 115//3 111//3
f 117//6 119//6 120//6 118//6
f 2//1 121//1 122//1 3//1
f 2//2 6//2 123//2 121//2
f 122//3 124//3 7//3 3//3
f 125//2 126//2 127//2 128//2
f 129//3 130//3 131//3 132//3
f 114//2 133//2 134//2 119//2
f 120//3 135//3 136//3 115//3
f 137//1 138//1 139//1 140//1
f 137//2 141//2 142//2 138//2
f 139//3 143//3 144//3 140//3
f 138//6 142//6 143//6 139//6
f 6//2 145//2 146//2 123//2
f 124//3 147//3 148//3 7//3
f 149//2 150//2 151//2 152//2
f 153//3 154//3 155//3 156//3
f 157//2 158//2 159//2 141//2
f 144//3 160//3 161//3 162//3
f 163//2 164//2 165//2 166//2
f 167//3 168//3 169//3 170//3
f 166//6 165//6 168//6 167//6
f 145//2 171//2 172//2 146//2
f 147//3 173//3 174//3 148//3
f 150//2 175//2 176//2 151//2
f 154//3 177//3 178//3 155//3
f 158//2 179//2 180//2 159//2
f 160//3 181//3 182//3 161//3
f 159//2 180//2 183//2 184//2
f 185//3 186//3 181//3 160//3
f 184//6 183//6 186//6 185//6
f 171//2 187//2 188//2 172//2
f 173//3 189//3 190//3 174//3
f 191//2 192//2 193//2 194//2
f 195//3 196//3 197//3 198//3
f 179//2 199//2 200//2 180//2
f 181//3 201//3 202//3 182//3
f 180//2 200//2 203//2 183//2
f 186//3 204//3 201//3 181//3
f 183//6 203//6 204//6 186//6
f 187//2 205//2 206//2 188//2
f 189//3 207//3 208//3 190//3
f 209//2 210//2 211//2 212//2
f 213//3 214//3 215//3 216//3
f 217//5 218//5 219//5 220//5
f 199//2 218//2 217//2 200//2
f 201//3 220//3 219//3 202//3
f 221//2 222//2 223//2 224//2
f 225//3 226//3 227//3 228//3
f 224//6 223//6 226//6 225//6
f 229//5 230//5 231//5 232//5
f 205//2 230//2 229//2 206//2
f 207//3 232//3 231//3 208//3
f 206//2 229//2 233//2 218//2
f 219//3 234//3 232//3 207//3
f 218//6 233//6 234//6 219//6
f 235//5 236//5 237//5 238//5
f 217//2 236//2 235//2 239//2
f 240//3 238//3 237//3 220//3
f 239//6 235//6 238//6 240//6
f 217//4 220//4 237//4 236//4
f 241//5 242//5 243//5 244//5
f 245//2 242//2 241//2 246//2
f 247//3 244//3 243//3 248//3
f 246//6 241//6 244//6 247//6
f 245//4 248//4 243//4 242//4
